<?xml version="1.0" standalone="no"?>
<!DOCTYPE svg PUBLIC "-//W3C//DTD SVG 20010904//EN"
 "http://www.w3.org/TR/2001/REC-SVG-20010904/DTD/svg10.dtd">
<svg version="1.0" xmlns="http://www.w3.org/2000/svg"
 width="197.000000pt" height="122.000000pt" viewBox="0 0 197.000000 122.000000"
 preserveAspectRatio="xMidYMid meet">

<g transform="translate(0.000000,122.000000) scale(0.100000,-0.100000)"
fill="#000000" stroke="none">
<path d="M80 890 l0 -40 50 0 50 0 0 -60 0 -60 75 0 75 0 0 60 0 60 -75 0 -75
0 0 40 0 40 -50 0 -50 0 0 -40z"/>
<path d="M490 890 l0 -40 45 0 45 0 0 40 0 40 -45 0 -45 0 0 -40z"/>
<path d="M347 844 c-4 -4 -7 -31 -7 -61 l0 -53 75 0 76 0 -3 58 -3 57 -65 3
c-36 2 -69 0 -73 -4z"/>
<path d="M1100 720 c0 -60 -3 -110 -7 -109 -5 0 -48 47 -97 105 -49 58 -94
103 -100 101 -7 -2 -13 -46 -16 -108 -5 -98 -6 -104 -30 -117 -30 -15 -112
-11 -135 8 -12 10 -15 35 -15 116 0 86 -3 104 -15 104 -12 0 -15 -19 -15 -113
0 -136 7 -148 95 -155 66 -5 99 2 125 28 16 16 20 34 20 95 0 41 3 75 8 74 4
0 45 -45 92 -100 49 -57 91 -98 100 -96 23 4 28 277 5 277 -13 0 -15 -18 -15
-110z"/>
<path d="M1150 690 c0 -118 2 -140 15 -140 13 0 15 22 15 140 0 118 -2 140
-15 140 -13 0 -15 -22 -15 -140z"/>
<path d="M1275 820 c-46 -18 -69 -58 -73 -123 -3 -53 0 -67 20 -97 27 -40 86
-64 131 -54 16 3 44 19 63 36 l34 30 0 -31 0 -31 100 0 c81 0 100 3 100 15 0
11 -18 15 -82 17 -71 3 -83 6 -86 21 -10 52 17 78 102 97 33 7 36 6 36 -14 1
-75 85 -157 131 -128 18 12 24 10 44 -12 31 -34 105 -38 105 -6 0 16 -5 19
-30 14 -37 -8 -37 -4 0 36 111 119 -39 305 -178 220 -39 -24 -42 -24 -42 -5 0
12 -18 15 -100 15 l-100 0 0 -74 c0 -73 0 -74 -43 -120 -46 -49 -73 -57 -120
-35 -31 14 -47 48 -47 102 0 52 21 84 63 95 35 9 86 -1 98 -19 8 -14 29 -3 29
16 0 34 -103 57 -155 35z m566 -59 c38 -38 40 -97 6 -137 -20 -23 -32 -27 -81
-29 -52 -1 -59 1 -82 28 -28 33 -31 75 -9 117 20 38 41 49 93 50 35 0 49 -6
73 -29z m-204 -11 c-7 -19 -14 -25 -18 -18 -8 12 -78 2 -121 -17 -15 -6 -18
-2 -18 29 l0 36 84 0 84 0 -11 -30z"/>
<path d="M342 658 l3 -63 70 -1 70 -1 3 -37 3 -36 50 0 50 0 -3 38 c-3 37 -3
37 -50 40 l-48 3 0 60 0 59 -75 0 -76 0 3 -62z"/>
<path d="M180 655 l0 -55 70 0 70 0 0 55 0 55 -70 0 -70 0 0 -55z"/>
<path d="M80 555 l0 -35 48 0 47 0 0 35 0 35 -47 0 -48 0 0 -35z"/>
<path d="M750 435 c-19 -23 3 -67 32 -63 12 2 24 10 26 18 5 13 3 13 -11 1
-14 -11 -20 -11 -32 -1 -19 16 -19 25 1 44 8 9 11 16 6 16 -5 0 -15 -7 -22
-15z"/>
<path d="M795 440 c3 -5 8 -10 11 -10 2 0 4 5 4 10 0 6 -5 10 -11 10 -5 0 -7
-4 -4 -10z"/>
<path d="M970 417 c0 -20 3 -38 8 -41 8 -5 7 62 -2 71 -3 4 -6 -10 -6 -30z"/>
<path d="M1123 410 c0 -25 2 -35 4 -22 2 12 2 32 0 45 -2 12 -4 2 -4 -23z"/>
<path d="M1226 434 c-8 -20 -8 -24 2 -24 4 0 8 9 9 20 2 24 -3 26 -11 4z"/>
<path d="M1355 430 c-9 -28 12 -60 39 -60 26 0 41 34 30 64 -9 24 -61 21 -69
-4z m62 -6 c3 -8 -2 -23 -11 -32 -15 -15 -17 -15 -32 0 -21 21 -11 48 16 48
11 0 23 -7 27 -16z"/>
<path d="M1699 439 c-2 -24 2 -54 10 -61 3 -4 6 9 5 28 -2 35 -13 60 -15 33z"/>
<path d="M834 416 c-12 -33 23 -65 40 -37 4 5 -3 7 -14 4 -15 -4 -20 0 -20 16
0 21 24 29 33 11 3 -6 4 -5 3 2 -4 19 -35 22 -42 4z"/>
<path d="M902 400 c0 -19 2 -27 5 -17 2 9 2 25 0 35 -3 9 -5 1 -5 -18z"/>
<path d="M926 423 c7 -4 14 -19 17 -33 4 -22 5 -21 4 4 -1 17 -9 31 -17 33
-10 3 -11 2 -4 -4z"/>
<path d="M1012 400 c0 -19 2 -27 5 -17 2 9 2 25 0 35 -3 9 -5 1 -5 -18z"/>
<path d="M1092 400 c0 -19 2 -27 5 -17 2 9 2 25 0 35 -3 9 -5 1 -5 -18z"/>
<path d="M1184 415 c-8 -19 2 -45 16 -45 6 0 5 8 -2 20 -11 17 -10 22 2 30 10
7 11 10 2 10 -7 0 -15 -7 -18 -15z"/>
<path d="M1254 415 c-7 -17 12 -45 30 -45 6 0 3 5 -6 11 -22 12 -24 39 -3 39
8 0 15 -4 15 -10 0 -5 4 -10 10 -10 5 0 7 7 4 15 -8 19 -43 19 -50 0z"/>
<path d="M1488 405 c-3 -14 -1 -25 3 -25 5 0 9 11 9 25 0 14 -2 25 -4 25 -2 0
-6 -11 -8 -25z"/>
<path d="M1533 423 c9 -2 17 -9 17 -14 0 -5 4 -9 10 -9 5 0 7 7 4 15 -4 8 -16
14 -28 14 -16 -1 -17 -2 -3 -6z"/>
<path d="M1581 396 c1 -21 3 -25 6 -11 3 11 9 25 14 31 5 7 3 11 -6 11 -10 0
-15 -10 -14 -31z"/>
<path d="M1630 415 c-15 -18 2 -46 29 -44 13 1 13 2 -1 6 -22 6 -24 43 -2 43
8 0 12 -4 9 -10 -3 -5 -1 -10 5 -10 17 0 6 24 -12 28 -8 2 -21 -4 -28 -13z"/>
<path d="M1772 405 c0 -16 2 -22 5 -12 2 9 2 23 0 30 -3 6 -5 -1 -5 -18z"/>
<path d="M1801 396 c1 -21 3 -25 6 -11 3 11 9 25 14 31 5 7 3 11 -6 11 -10 0
-15 -10 -14 -31z"/>
<path d="M1846 414 c-9 -22 17 -49 39 -40 10 3 15 15 13 28 -4 29 -42 37 -52
12z m44 -14 c0 -21 -24 -28 -35 -10 -8 14 3 30 21 30 8 0 14 -9 14 -20z"/>
<path d="M1510 402 c0 -12 22 -32 35 -32 5 0 2 5 -8 11 -9 6 -15 14 -12 20 4
5 1 9 -4 9 -6 0 -11 -4 -11 -8z"/>
<path d="M1050 391 c0 -10 19 -25 25 -20 1 2 -3 10 -11 17 -8 7 -14 8 -14 3z"/>
<path d="M1450 385 c0 -8 4 -15 10 -15 5 0 7 7 4 15 -4 8 -8 15 -10 15 -2 0
-4 -7 -4 -15z"/>
<path d="M1732 388 c2 -6 10 -13 16 -14 7 -1 8 0 2 3 -5 2 -8 9 -4 14 3 5 0 9
-6 9 -7 0 -10 -5 -8 -12z"/>
</g>
</svg>
