<?xml version="1.0" standalone="no"?>
<!DOCTYPE svg PUBLIC "-//W3C//DTD SVG 20010904//EN"
 "http://www.w3.org/TR/2001/REC-SVG-20010904/DTD/svg10.dtd">
<svg version="1.0" xmlns="http://www.w3.org/2000/svg"
 width="200.000000pt" height="200.000000pt" viewBox="0 0 200.000000 200.000000"
 preserveAspectRatio="xMidYMid meet">

<g transform="translate(0.000000,200.000000) scale(0.100000,-0.100000)"
fill="#000000" stroke="none">
<path d="M110 1580 l0 -140 170 0 170 0 0 -210 0 -210 265 0 265 0 0 210 0
210 -265 0 -265 0 0 140 0 140 -170 0 -170 0 0 -140z"/>
<path d="M1550 1585 l0 -135 170 0 170 0 0 135 0 135 -170 0 -170 0 0 -135z"/>
<path d="M1020 1230 l0 -210 260 0 260 0 0 210 0 210 -260 0 -260 0 0 -210z"/>
<path d="M460 770 l0 -210 259 0 260 0 -2 208 -2 207 -257 3 -258 2 0 -210z"/>
<path d="M1020 770 l0 -210 265 0 265 0 0 -140 0 -140 173 2 172 3 0 135 0
135 -160 2 c-88 1 -166 2 -172 3 -10 0 -13 49 -13 210 l0 210 -265 0 -265 0 0
-210z"/>
<path d="M110 415 l0 -135 170 0 170 0 0 135 0 135 -170 0 -170 0 0 -135z"/>
</g>
</svg>
